<?xml version="1.0" encoding="UTF-8"?>
<svg id="Last" xmlns="http://www.w3.org/2000/svg" viewBox="0 0 1080 1080">
  <defs>
    <style>
      .cls-1 {
        stroke: #1d1d1b;
        stroke-miterlimit: 10;
      }

      .cls-1, .cls-2 {
        fill: #2fac66;
      }

      .cls-2, .cls-3, .cls-4, .cls-5, .cls-6 {
        stroke-width: 0px;
      }

      .cls-3 {
        fill: #1c2645;
      }

      .cls-4 {
        fill: #fff;
      }

      .cls-5 {
        fill: #f2e629;
      }

      .cls-6 {
        fill: #e43e5a;
      }
    </style>
  </defs>
  <g id="aiguille">
    <path class="cls-3" d="m432.29,196.95c-1.68,2.18-3.35,4.36-5.03,6.54-4.53,5.89-9.05,11.77-13.58,17.66-6.68,8.69-13.37,17.39-20.05,26.08-8.15,10.6-16.3,21.2-24.45,31.8-8.93,11.61-17.85,23.22-26.78,34.83-9.06,11.79-18.12,23.57-27.18,35.36-8.4,10.93-16.8,21.85-25.2,32.78-7.1,9.23-14.2,18.47-21.3,27.7-5.11,6.64-10.21,13.28-15.32,19.93-2.43,3.15-4.85,6.31-7.28,9.46-.1.13-.21.27-.31.4-1.6,2.08-.39,5.69,1.79,6.84,2.65,1.4,5.13.43,6.84-1.79,1.68-2.18,3.35-4.36,5.03-6.54,4.53-5.89,9.05-11.77,13.58-17.66l20.05-26.08c8.15-10.6,16.3-21.2,24.45-31.8,8.93-11.61,17.85-23.22,26.78-34.83,9.06-11.79,18.12-23.57,27.18-35.36,8.4-10.93,16.8-21.85,25.2-32.78,7.1-9.23,14.2-18.47,21.3-27.7,5.11-6.64,10.21-13.28,15.32-19.93l7.28-9.46c.1-.13.21-.27.31-.4,1.6-2.08.39-5.69-1.79-6.84-2.65-1.4-5.13-.43-6.84,1.79h0Z"/>
    <path class="cls-3" d="m433.07,203.01c2.41,2.95,4.82,5.91,7.22,8.86,6.55,8.04,13.11,16.07,19.66,24.11,9.69,11.89,19.39,23.77,29.08,35.66,11.83,14.5,23.65,29,35.48,43.51,12.96,15.89,25.91,31.77,38.87,47.66,13.08,16.04,26.15,32.07,39.23,48.11,12.19,14.95,24.39,29.91,36.58,44.86,10.3,12.64,20.61,25.27,30.91,37.91,7.41,9.09,14.82,18.17,22.23,27.26l10.53,12.91c.15.18.3.37.45.55,1.71,2.09,5.3,1.77,7.07,0,2.07-2.07,1.71-4.97,0-7.07-2.41-2.95-4.82-5.91-7.22-8.86-6.55-8.04-13.11-16.07-19.66-24.11-9.69-11.89-19.39-23.77-29.08-35.66-11.83-14.5-23.65-29-35.48-43.51-12.96-15.89-25.91-31.77-38.87-47.66-13.08-16.04-26.15-32.07-39.23-48.11-12.19-14.95-24.39-29.91-36.58-44.86-10.3-12.64-20.61-25.27-30.91-37.91-7.41-9.09-14.82-18.17-22.23-27.26-3.51-4.3-7.02-8.61-10.53-12.91-.15-.18-.3-.37-.45-.55-1.71-2.09-5.3-1.77-7.07,0-2.07,2.07-1.71,4.97,0,7.07h0Z"/>
    <circle class="cls-6" cx="434.9" cy="197.3" r="52.48"/>
    <circle class="cls-5" cx="706.86" cy="538.52" r="52.48"/>
    <circle class="cls-2" cx="244.17" cy="442.01" r="52.48"/>
  </g>
  <g>
    <path class="cls-6" d="m119.81,677.65l57.89,87.6v-88.41c0-5.74,1.23-10.05,3.7-12.93,2.47-2.87,5.79-4.31,9.99-4.31s7.74,1.44,10.24,4.31c2.5,2.87,3.75,7.18,3.75,12.93v116.9c0,13.05-5.41,19.57-16.22,19.57-2.7,0-5.14-.39-7.3-1.17-2.16-.78-4.19-2.01-6.08-3.7-1.89-1.69-3.65-3.66-5.27-5.93s-3.24-4.58-4.87-6.95l-56.47-86.58v87.09c0,5.68-1.32,9.97-3.95,12.88-2.64,2.91-6.02,4.36-10.14,4.36s-7.67-1.47-10.24-4.41c-2.57-2.94-3.85-7.22-3.85-12.83v-114.67c0-4.87.54-8.68,1.62-11.46,1.28-3.04,3.41-5.53,6.39-7.45,2.97-1.93,6.18-2.89,9.63-2.89,2.7,0,5.02.44,6.95,1.32,1.93.88,3.61,2.06,5.07,3.55,1.45,1.49,2.94,3.41,4.46,5.78,1.52,2.37,3.09,4.84,4.71,7.4Z"/>
    <path class="cls-6" d="m303.72,659.6c15.41,0,28.64,3.13,39.69,9.38,11.05,6.25,19.42,15.14,25.09,26.66,5.68,11.53,8.52,25.06,8.52,40.61,0,11.49-1.56,21.93-4.66,31.33-3.11,9.4-7.77,17.54-13.99,24.43-6.22,6.9-13.86,12.17-22.91,15.82-9.06,3.65-19.43,5.48-31.13,5.48s-22.04-1.88-31.23-5.63c-9.19-3.75-16.87-9.04-23.02-15.87-6.15-6.83-10.8-15.04-13.94-24.64-3.14-9.6-4.71-19.97-4.71-31.13s1.64-21.9,4.92-31.43c3.28-9.53,8.03-17.64,14.24-24.33,6.22-6.69,13.79-11.81,22.71-15.36,8.92-3.55,19.06-5.32,30.42-5.32Zm42.79,76.45c0-10.88-1.76-20.31-5.27-28.29-3.51-7.97-8.53-14.01-15.06-18.1-6.52-4.09-14.01-6.13-22.46-6.13-6.02,0-11.58,1.13-16.68,3.4-5.1,2.27-9.5,5.56-13.18,9.88-3.69,4.33-6.59,9.85-8.72,16.58-2.13,6.73-3.19,14.28-3.19,22.66s1.06,16.09,3.19,22.91c2.13,6.83,5.14,12.49,9.02,16.98,3.89,4.5,8.35,7.86,13.38,10.09,5.03,2.23,10.56,3.35,16.58,3.35,7.71,0,14.79-1.93,21.24-5.78,6.45-3.85,11.59-9.8,15.41-17.84,3.82-8.04,5.73-17.94,5.73-29.71Z"/>
    <path class="cls-6" d="m402.98,749.33v-71.48c0-6.08,1.37-10.65,4.11-13.69s6.34-4.56,10.8-4.56,8.36,1.52,11.1,4.56c2.74,3.04,4.11,7.6,4.11,13.69v73.1c0,8.31.93,15.26,2.79,20.84,1.86,5.58,5.15,9.9,9.89,12.98,4.73,3.08,11.35,4.61,19.87,4.61,11.76,0,20.07-3.12,24.94-9.38,4.87-6.25,7.3-15.73,7.3-28.44v-73.71c0-6.15,1.35-10.73,4.06-13.74,2.7-3.01,6.32-4.51,10.85-4.51s8.2,1.51,11,4.51c2.8,3.01,4.21,7.59,4.21,13.74v71.48c0,11.63-1.13,21.33-3.4,29.1-2.27,7.77-6.54,14.6-12.83,20.48-5.41,5-11.69,8.65-18.86,10.95-7.17,2.3-15.55,3.45-25.15,3.45-11.42,0-21.26-1.23-29.5-3.7-8.25-2.47-14.97-6.29-20.18-11.46-5.21-5.17-9.02-11.79-11.46-19.87-2.43-8.08-3.65-17.73-3.65-28.95Z"/>
    <path class="cls-4" d="m596.59,679.12v108.18h61.04c4.87,0,8.6,1.18,11.2,3.55,2.6,2.37,3.9,5.34,3.9,8.92s-1.28,6.61-3.85,8.87c-2.57,2.27-6.32,3.4-11.25,3.4h-72.7c-6.56,0-11.27-1.45-14.14-4.36-2.87-2.9-4.31-7.6-4.31-14.09v-114.47c0-6.08,1.37-10.65,4.11-13.69,2.74-3.04,6.34-4.56,10.8-4.56s8.2,1.51,11,4.51c2.8,3.01,4.21,7.59,4.21,13.74Z"/>
    <path class="cls-1" d="m693.72,831.71v-190.68c0-9.9,1.38-17.33,4.16-22.29,2.77-4.95,6.35-7.43,10.75-7.43s8.2,2.45,11,7.35c2.81,4.9,4.21,12.36,4.21,22.37v190.68c0,10.02-1.4,17.5-4.21,22.45s-6.47,7.43-11,7.43-7.89-2.51-10.7-7.51c-2.81-5.01-4.21-12.47-4.21-22.37Z"/>
    <path class="cls-4" d="m796.73,678.92l57.89,87.6v-88.41c0-5.74,1.23-10.05,3.7-12.93,2.47-2.87,5.79-4.31,9.99-4.31s7.74,1.44,10.24,4.31c2.5,2.87,3.75,7.18,3.75,12.93v116.9c0,13.05-5.41,19.57-16.22,19.57-2.7,0-5.14-.39-7.3-1.17-2.16-.78-4.19-2.01-6.08-3.7-1.89-1.69-3.65-3.66-5.27-5.93-1.62-2.27-3.24-4.58-4.87-6.95l-56.47-86.58v87.09c0,5.68-1.32,9.97-3.95,12.88-2.64,2.91-6.02,4.36-10.14,4.36s-7.67-1.47-10.24-4.41c-2.57-2.94-3.85-7.22-3.85-12.83v-114.67c0-4.87.54-8.68,1.62-11.46,1.28-3.04,3.41-5.53,6.39-7.45,2.97-1.93,6.18-2.89,9.63-2.89,2.7,0,5.02.44,6.95,1.32,1.93.88,3.61,2.06,5.07,3.55,1.45,1.49,2.94,3.41,4.46,5.78,1.52,2.37,3.09,4.84,4.72,7.4Z"/>
    <path class="cls-4" d="m945.57,679.12v52.11l59.11-61.64c2.84-2.97,5.26-5.17,7.25-6.59,1.99-1.42,4.65-2.13,7.96-2.13,4.33,0,7.82,1.27,10.49,3.8,2.67,2.54,4,5.63,4,9.28,0,4.39-2.27,8.75-6.79,13.08l-36.6,34.67,42.18,60.43c2.97,4.19,5.2,7.86,6.69,11,1.49,3.14,2.23,6.2,2.23,9.17,0,3.31-1.3,6.18-3.9,8.62-2.6,2.43-6.13,3.65-10.6,3.65-4.19,0-7.6-.9-10.24-2.69-2.64-1.79-4.87-4.17-6.69-7.15s-3.45-5.68-4.87-8.11l-35.59-54.75-24.64,23.62v30.72c0,6.22-1.42,10.83-4.26,13.84-2.84,3.01-6.49,4.51-10.95,4.51-2.57,0-5.04-.68-7.4-2.03-2.37-1.35-4.19-3.18-5.47-5.48-.95-1.89-1.52-4.09-1.72-6.59-.2-2.5-.31-6.12-.31-10.85v-110.51c0-6.08,1.33-10.65,4-13.69,2.67-3.04,6.3-4.56,10.9-4.56s8.2,1.51,11,4.51c2.8,3.01,4.21,7.59,4.21,13.74Z"/>
  </g>
</svg>